<svg version="1.1" xmlns="http://www.w3.org/2000/svg" viewBox="0 0 164.32421875 164.32421875" width="164.32421875" height="164.32421875">
  <!-- svg-source:excalidraw -->
  
  <defs>
    <style class="style-fonts">
      @font-face {
        font-family: "Virgil";
        src: url("https://file%2B.vscode-resource.vscode-cdn.net/Users/teresa/.vscode/extensions/pomdtr.excalidraw-editor-3.5.1/public//dist/excalidraw-assets/Virgil.woff2");
      }
      @font-face {
        font-family: "Cascadia";
        src: url("https://file%2B.vscode-resource.vscode-cdn.net/Users/teresa/.vscode/extensions/pomdtr.excalidraw-editor-3.5.1/public//dist/excalidraw-assets/Cascadia.woff2");
      }
    </style>
  </defs>
  <g stroke-linecap="round" transform="translate(10 10) rotate(0 72.162109375 72.162109375)"><path d="M32 0 M32 0 C54.13 0.13, 78.06 1.21, 112.32 0 M32 0 C56.43 0.07, 78 0.72, 112.32 0 M112.32 0 C134.03 -0.18, 143.83 10.03, 144.32 32 M112.32 0 C133.62 1.15, 144.6 10.89, 144.32 32 M144.32 32 C144.49 56.55, 144.24 80.61, 144.32 112.32 M144.32 32 C144.51 59.66, 143.86 87.59, 144.32 112.32 M144.32 112.32 C144.83 133.29, 134.72 144.48, 112.32 144.32 M144.32 112.32 C145.75 134.62, 134.95 142.15, 112.32 144.32 M112.32 144.32 C96.42 144.52, 77.13 144.5, 32 144.32 M112.32 144.32 C90.97 144.27, 70.36 144.71, 32 144.32 M32 144.32 C10.5 144.52, -0.6 133.34, 0 112.32 M32 144.32 C12.76 144.3, -2.01 133.71, 0 112.32 M0 112.32 C-0.57 88.53, -2.37 66.62, 0 32 M0 112.32 C-1.46 90.82, -0.73 71.69, 0 32 M0 32 C1.49 9.6, 11.88 -0.34, 32 0 M0 32 C2.07 10.21, 11.71 -0.2, 32 0" stroke="#000000" stroke-width="4" fill="none"></path></g><g stroke-linecap="round"><g transform="translate(38.94647209329116 144.69352256126928) rotate(0 44.227986625664755 -62.03929846773127)"><path d="M-1.21 -1.52 C13.4 -8.57, 24.84 -18.72, 43.52 -30.34 M0.3 0.56 C10.94 -8.28, 23.6 -16.35, 43.24 -31.94 M42.03 -29.37 C54.65 -21.66, 63.48 -14.62, 87.72 1.51 M44.82 -30.66 C54.84 -24, 65.24 -14.83, 86.77 -0.3 M86.83 -1.42 C89.24 -49.72, 90.05 -96.04, 88.63 -123.31 M87.34 -0.01 C86.37 -38.6, 87.08 -77.71, 89.01 -122.84 M88.69 -122.21 C69.81 -121.14, 47.08 -124.83, 1.77 -125.58 M89.67 -121.95 C63.15 -122.74, 38.35 -122.87, 0.24 -123.81 M1.9 -124.61 C0.26 -83.81, -1.69 -42.96, 0.11 0.94 M1.83 -123.84 C0.5 -78.31, 1.07 -34.72, -0.63 -0.21" stroke="#000000" stroke-width="4" fill="none"></path></g></g><mask></mask></svg>