<svg version="1.1" xmlns="http://www.w3.org/2000/svg" viewBox="0 0 164.32421875 164.32421875" width="164.32421875" height="164.32421875">
  <!-- svg-source:excalidraw -->
  
  <defs>
    <style class="style-fonts">
      @font-face {
        font-family: "Virgil";
        src: url("https://file%2B.vscode-resource.vscode-cdn.net/Users/teresa/.vscode/extensions/pomdtr.excalidraw-editor-3.5.1/public//dist/excalidraw-assets/Virgil.woff2");
      }
      @font-face {
        font-family: "Cascadia";
        src: url("https://file%2B.vscode-resource.vscode-cdn.net/Users/teresa/.vscode/extensions/pomdtr.excalidraw-editor-3.5.1/public//dist/excalidraw-assets/Cascadia.woff2");
      }
    </style>
  </defs>
  <g stroke-linecap="round" transform="translate(10 10) rotate(0 72.162109375 72.162109375)"><path d="M32 0 M32 0 C54.13 0.13, 78.06 1.21, 112.32 0 M32 0 C56.43 0.07, 78 0.72, 112.32 0 M112.32 0 C134.03 -0.18, 143.83 10.03, 144.32 32 M112.32 0 C133.62 1.15, 144.6 10.89, 144.32 32 M144.32 32 C144.49 56.55, 144.24 80.61, 144.32 112.32 M144.32 32 C144.51 59.66, 143.86 87.59, 144.32 112.32 M144.32 112.32 C144.83 133.29, 134.72 144.48, 112.32 144.32 M144.32 112.32 C145.75 134.62, 134.95 142.15, 112.32 144.32 M112.32 144.32 C96.42 144.52, 77.13 144.5, 32 144.32 M112.32 144.32 C90.97 144.27, 70.36 144.71, 32 144.32 M32 144.32 C10.5 144.52, -0.6 133.34, 0 112.32 M32 144.32 C12.76 144.3, -2.01 133.71, 0 112.32 M0 112.32 C-0.57 88.53, -2.37 66.62, 0 32 M0 112.32 C-1.46 90.82, -0.73 71.69, 0 32 M0 32 C1.49 9.6, 11.88 -0.34, 32 0 M0 32 C2.07 10.21, 11.71 -0.2, 32 0" stroke="#000000" stroke-width="4" fill="none"></path></g><g stroke-linecap="round"><g transform="translate(90.80224413846713 34.157171431185475) rotate(41.35998784989225 0.5843282641549763 54.15094353852794)"><path d="M-0.61 0.24 C-0.55 18.35, -0.71 89.62, -0.58 107.53 M1.26 -0.68 C1.78 17.72, 1.97 90.71, 1.64 108.98" stroke="#000000" stroke-width="4" fill="none"></path></g></g><mask></mask><g stroke-linecap="round"><g transform="translate(70.44085105251202 13.481790973987472) rotate(41.35998784989225 0.5442160389137314 54.06400790125133)"><path d="M-0.68 0.89 C-0.68 18.84, -0.69 89.08, -0.6 106.76 M1.17 0.31 C1.59 18.47, 2 89.88, 1.6 107.82" stroke="#000000" stroke-width="4" fill="none"></path></g></g><mask></mask><g stroke-linecap="round"><g transform="translate(102.81468958437193 36.22193674829822) rotate(41.35998784989225 15.211201978847384 0.42451020676541873)"><path d="M-0.44 -0.71 C4.78 -0.71, 25.85 -0.37, 30.86 0 M1.53 1.53 C6.67 1.64, 25.03 1.35, 30.12 1" stroke="#000000" stroke-width="4" fill="none"></path></g></g><mask></mask><g stroke-linecap="round"><g transform="translate(26.675518253585835 112.03421759317496) rotate(41.35998784989225 6.109123974852253 8.671953921392571)"><path d="M-0.86 -1.15 C1.08 1.89, 8.61 15.35, 10.85 18.49 M0.89 0.86 C3.27 3.54, 11.18 13.75, 13.08 16.78" stroke="#000000" stroke-width="4" fill="none"></path></g></g><mask></mask><g stroke-linecap="round"><g transform="translate(49.72044255577248 123.97407520878988) rotate(41.35998784989225 -6.347850488498807 8.251109738387157)"><path d="M0.79 0.79 C-1.29 3.65, -11.35 13.91, -13.49 16.34 M-0.26 0.16 C-1.87 2.73, -9.24 11.82, -11.28 14.53" stroke="#000000" stroke-width="4" fill="none"></path></g></g><mask></mask></svg>