<svg version="1.1" xmlns="http://www.w3.org/2000/svg" viewBox="0 0 164.32421875 164.32421875" width="164.32421875" height="164.32421875">
  <!-- svg-source:excalidraw -->
  
  <defs>
    <style class="style-fonts">
      @font-face {
        font-family: "Virgil";
        src: url("https://file%2B.vscode-resource.vscode-cdn.net/Users/teresa/.vscode/extensions/pomdtr.excalidraw-editor-3.5.1/public//dist/excalidraw-assets/Virgil.woff2");
      }
      @font-face {
        font-family: "Cascadia";
        src: url("https://file%2B.vscode-resource.vscode-cdn.net/Users/teresa/.vscode/extensions/pomdtr.excalidraw-editor-3.5.1/public//dist/excalidraw-assets/Cascadia.woff2");
      }
    </style>
  </defs>
  <g stroke-linecap="round" transform="translate(10 10) rotate(0 72.162109375 72.162109375)"><path d="M32 0 M32 0 C54.13 0.13, 78.06 1.21, 112.32 0 M32 0 C56.43 0.07, 78 0.72, 112.32 0 M112.32 0 C134.03 -0.18, 143.83 10.03, 144.32 32 M112.32 0 C133.62 1.15, 144.6 10.89, 144.32 32 M144.32 32 C144.49 56.55, 144.24 80.61, 144.32 112.32 M144.32 32 C144.51 59.66, 143.86 87.59, 144.32 112.32 M144.32 112.32 C144.83 133.29, 134.72 144.48, 112.32 144.32 M144.32 112.32 C145.75 134.62, 134.95 142.15, 112.32 144.32 M112.32 144.32 C96.42 144.52, 77.13 144.5, 32 144.32 M112.32 144.32 C90.97 144.27, 70.36 144.71, 32 144.32 M32 144.32 C10.5 144.52, -0.6 133.34, 0 112.32 M32 144.32 C12.76 144.3, -2.01 133.71, 0 112.32 M0 112.32 C-0.57 88.53, -2.37 66.62, 0 32 M0 112.32 C-1.46 90.82, -0.73 71.69, 0 32 M0 32 C1.49 9.6, 11.88 -0.34, 32 0 M0 32 C2.07 10.21, 11.71 -0.2, 32 0" stroke="#000000" stroke-width="4" fill="none"></path></g><g stroke-linecap="round"><g transform="translate(67.02218136684075 56.074246116821314) rotate(0 18.005999087750155 18.871294190672998)"><path d="M0.3 0.7 C-0.41 -2.14, -5.79 -11.44, -3.96 -16.8 C-2.13 -22.15, 4.91 -30.93, 11.26 -31.41 C17.61 -31.9, 29.13 -25.67, 34.15 -19.71 C39.16 -13.76, 42.21 -3.21, 41.33 4.33 C40.45 11.88, 34.03 21.22, 28.85 25.57 C23.68 29.92, 13.31 29.27, 10.27 30.43 C7.23 31.59, 10.21 29.14, 10.6 32.52 C10.99 35.9, 12.4 44.77, 12.61 50.72 C12.83 56.66, 11.93 65.64, 11.9 68.19 C11.86 70.74, 12.2 66.2, 12.4 66.04 M-1 0.03 C-1.92 -2.67, -6.96 -10.34, -5.04 -15.44 C-3.12 -20.54, 3.98 -30.06, 10.52 -30.56 C17.05 -31.06, 29.2 -24.28, 34.18 -18.45 C39.16 -12.62, 41.62 -3.26, 40.39 4.43 C39.16 12.12, 31.78 23.07, 26.81 27.71 C21.84 32.35, 12.92 31.46, 10.58 32.29 C8.24 33.12, 12.68 29.77, 12.76 32.68 C12.85 35.59, 11.15 43.81, 11.12 49.74 C11.09 55.67, 12.31 65.48, 12.59 68.26 C12.86 71.04, 12.85 66.66, 12.76 66.42" stroke="#000000" stroke-width="4" fill="none"></path></g></g><mask></mask><g stroke-linecap="round" transform="translate(74.28125 134.01802986819723) rotate(0 6.11328125 6.061297565901384)"><path d="M4.63 0.07 C5.82 -0.34, 7.21 -0.27, 8.44 0.31 C9.66 0.9, 11.25 2.14, 11.99 3.58 C12.72 5.01, 13.34 7.65, 12.83 8.92 C12.32 10.18, 10.12 10.77, 8.94 11.17 C7.76 11.57, 6.97 11.57, 5.73 11.3 C4.49 11.03, 2.53 10.6, 1.5 9.58 C0.46 8.56, -0.45 6.41, -0.48 5.19 C-0.51 3.96, 0.31 3.04, 1.34 2.23 C2.37 1.41, 4.92 0.74, 5.72 0.3 C6.53 -0.13, 6.32 -0.29, 6.15 -0.39 M8.78 1.34 C9.98 1.84, 12 3.03, 12.55 4.1 C13.09 5.18, 12.5 6.53, 12.06 7.81 C11.61 9.08, 10.91 10.79, 9.86 11.73 C8.81 12.67, 6.91 13.56, 5.74 13.44 C4.58 13.32, 3.81 12.2, 2.87 11.02 C1.94 9.84, 0.44 7.65, 0.12 6.36 C-0.2 5.08, 0.43 4.23, 0.96 3.31 C1.48 2.39, 1.87 1.44, 3.26 0.86 C4.65 0.28, 8.54 0.06, 9.29 -0.15 C10.04 -0.36, 8.03 -0.67, 7.75 -0.4" stroke="#000000" stroke-width="4" fill="none"></path></g></svg>